<?xml version="1.0" ?><svg viewBox="0 0 24 24" xmlns="http://www.w3.org/2000/svg"><title/><g data-name="briefcase alternatif" id="briefcase_alternatif"><path d="M20,5H17V4a3,3,0,0,0-3-3H10A3,3,0,0,0,7,4V5H4A3,3,0,0,0,1,8V20a3,3,0,0,0,3,3H20a3,3,0,0,0,3-3V8A3,3,0,0,0,20,5ZM9,4a1,1,0,0,1,1-1h4a1,1,0,0,1,1,1V5H9ZM20.92,7.63c0,.1-.08.11-4.5,4.54A6.3,6.3,0,0,1,13,13.91a1,1,0,0,0-2,0c-2.63-.42-3.46-1.76-7.95-6.25A1,1,0,0,1,4,7C21,7,20.57,6.75,20.92,7.63ZM20,21H4a1,1,0,0,1-1-1V10.41c3,3,4.5,5.08,8,5.52A1,1,0,1,0,13,16c0-.28,2.42,0,4.83-2.42L21,10.41V20A1,1,0,0,1,20,21Z"/></g></svg>